<svg width="36" height="36" viewBox="0 0 36 36" fill="none" xmlns="http://www.w3.org/2000/svg">
<circle cx="18" cy="18" r="18" fill="#E5E5E5"/>
<path opacity="0.2" d="M16.5 13.5C16.5 14.0933 16.3241 14.6734 15.9944 15.1667C15.6648 15.6601 15.1962 16.0446 14.6481 16.2716C14.0999 16.4987 13.4967 16.5581 12.9147 16.4424C12.3328 16.3266 11.7982 16.0409 11.3787 15.6213C10.9591 15.2018 10.6734 14.6672 10.5576 14.0853C10.4419 13.5033 10.5013 12.9001 10.7284 12.352C10.9554 11.8038 11.3399 11.3352 11.8333 11.0056C12.3266 10.6759 12.9067 10.5 13.5 10.5C14.2957 10.5 15.0587 10.8161 15.6213 11.3787C16.1839 11.9413 16.5 12.7044 16.5 13.5ZM22.5 16.5C23.0933 16.5 23.6734 16.3241 24.1667 15.9944C24.6601 15.6648 25.0446 15.1962 25.2716 14.6481C25.4987 14.0999 25.5581 13.4967 25.4424 12.9147C25.3266 12.3328 25.0409 11.7982 24.6213 11.3787C24.2018 10.9591 23.6672 10.6734 23.0853 10.5576C22.5033 10.4419 21.9001 10.5013 21.352 10.7284C20.8038 10.9554 20.3352 11.3399 20.0056 11.8333C19.6759 12.3266 19.5 12.9067 19.5 13.5C19.5 14.2957 19.8161 15.0587 20.3787 15.6213C20.9413 16.1839 21.7044 16.5 22.5 16.5ZM13.5 19.5C12.9067 19.5 12.3266 19.6759 11.8333 20.0056C11.3399 20.3352 10.9554 20.8038 10.7284 21.352C10.5013 21.9001 10.4419 22.5033 10.5576 23.0853C10.6734 23.6672 10.9591 24.2018 11.3787 24.6213C11.7982 25.0409 12.3328 25.3266 12.9147 25.4424C13.4967 25.5581 14.0999 25.4987 14.6481 25.2716C15.1962 25.0446 15.6648 24.6601 15.9944 24.1667C16.3241 23.6734 16.5 23.0933 16.5 22.5C16.5 21.7044 16.1839 20.9413 15.6213 20.3787C15.0587 19.8161 14.2957 19.5 13.5 19.5ZM22.5 19.5C21.9067 19.5 21.3266 19.6759 20.8333 20.0056C20.3399 20.3352 19.9554 20.8038 19.7284 21.352C19.5013 21.9001 19.4419 22.5033 19.5576 23.0853C19.6734 23.6672 19.9591 24.2018 20.3787 24.6213C20.7982 25.0409 21.3328 25.3266 21.9147 25.4424C22.4967 25.5581 23.0999 25.4987 23.6481 25.2716C24.1962 25.0446 24.6648 24.6601 24.9944 24.1667C25.3241 23.6734 25.5 23.0933 25.5 22.5C25.5 21.7044 25.1839 20.9413 24.6213 20.3787C24.0587 19.8161 23.2957 19.5 22.5 19.5Z" fill="#404040"/>
<path d="M13.5 9.75C12.7583 9.75 12.0333 9.96994 11.4166 10.382C10.7999 10.794 10.3193 11.3797 10.0355 12.0649C9.75162 12.7502 9.67736 13.5042 9.82206 14.2316C9.96675 14.959 10.3239 15.6272 10.8484 16.1517C11.3728 16.6761 12.041 17.0333 12.7684 17.1779C13.4958 17.3226 14.2498 17.2484 14.9351 16.9646C15.6203 16.6807 16.206 16.2001 16.618 15.5834C17.0301 14.9667 17.25 14.2417 17.25 13.5C17.25 12.5054 16.8549 11.5516 16.1517 10.8484C15.4484 10.1451 14.4946 9.75 13.5 9.75ZM13.5 15.75C13.055 15.75 12.62 15.618 12.25 15.3708C11.88 15.1236 11.5916 14.7722 11.4213 14.361C11.251 13.9499 11.2064 13.4975 11.2932 13.061C11.3801 12.6246 11.5943 12.2237 11.909 11.909C12.2237 11.5943 12.6246 11.3801 13.061 11.2932C13.4975 11.2064 13.9499 11.251 14.361 11.4213C14.7722 11.5916 15.1236 11.88 15.3708 12.25C15.618 12.62 15.75 13.055 15.75 13.5C15.75 14.0967 15.5129 14.669 15.091 15.091C14.669 15.5129 14.0967 15.75 13.5 15.75ZM22.5 17.25C23.2417 17.25 23.9667 17.0301 24.5834 16.618C25.2001 16.206 25.6807 15.6203 25.9646 14.9351C26.2484 14.2498 26.3226 13.4958 26.1779 12.7684C26.0333 12.041 25.6761 11.3728 25.1517 10.8484C24.6272 10.3239 23.959 9.96675 23.2316 9.82206C22.5042 9.67736 21.7502 9.75162 21.0649 10.0355C20.3797 10.3193 19.794 10.7999 19.382 11.4166C18.9699 12.0333 18.75 12.7583 18.75 13.5C18.75 14.4946 19.1451 15.4484 19.8484 16.1517C20.5516 16.8549 21.5054 17.25 22.5 17.25ZM22.5 11.25C22.945 11.25 23.38 11.382 23.75 11.6292C24.12 11.8764 24.4084 12.2278 24.5787 12.639C24.749 13.0501 24.7936 13.5025 24.7068 13.939C24.62 14.3754 24.4057 14.7763 24.091 15.091C23.7763 15.4057 23.3754 15.62 22.939 15.7068C22.5025 15.7936 22.0501 15.749 21.639 15.5787C21.2278 15.4084 20.8764 15.12 20.6292 14.75C20.382 14.38 20.25 13.945 20.25 13.5C20.25 12.9033 20.4871 12.331 20.909 11.909C21.331 11.4871 21.9033 11.25 22.5 11.25ZM13.5 18.75C12.7583 18.75 12.0333 18.9699 11.4166 19.382C10.7999 19.794 10.3193 20.3797 10.0355 21.0649C9.75162 21.7502 9.67736 22.5042 9.82206 23.2316C9.96675 23.959 10.3239 24.6272 10.8484 25.1517C11.3728 25.6761 12.041 26.0333 12.7684 26.1779C13.4958 26.3226 14.2498 26.2484 14.9351 25.9646C15.6203 25.6807 16.206 25.2001 16.618 24.5834C17.0301 23.9667 17.25 23.2417 17.25 22.5C17.25 21.5054 16.8549 20.5516 16.1517 19.8484C15.4484 19.1451 14.4946 18.75 13.5 18.75ZM13.5 24.75C13.055 24.75 12.62 24.618 12.25 24.3708C11.88 24.1236 11.5916 23.7722 11.4213 23.361C11.251 22.9499 11.2064 22.4975 11.2932 22.061C11.3801 21.6246 11.5943 21.2237 11.909 20.909C12.2237 20.5943 12.6246 20.3801 13.061 20.2932C13.4975 20.2064 13.9499 20.251 14.361 20.4213C14.7722 20.5916 15.1236 20.88 15.3708 21.25C15.618 21.62 15.75 22.055 15.75 22.5C15.75 23.0967 15.5129 23.669 15.091 24.091C14.669 24.5129 14.0967 24.75 13.5 24.75ZM22.5 18.75C21.7583 18.75 21.0333 18.9699 20.4166 19.382C19.7999 19.794 19.3193 20.3797 19.0355 21.0649C18.7516 21.7502 18.6774 22.5042 18.8221 23.2316C18.9668 23.959 19.3239 24.6272 19.8484 25.1517C20.3728 25.6761 21.041 26.0333 21.7684 26.1779C22.4958 26.3226 23.2498 26.2484 23.9351 25.9646C24.6203 25.6807 25.206 25.2001 25.618 24.5834C26.0301 23.9667 26.25 23.2417 26.25 22.5C26.25 21.5054 25.8549 20.5516 25.1517 19.8484C24.4484 19.1451 23.4946 18.75 22.5 18.75ZM22.5 24.75C22.055 24.75 21.62 24.618 21.25 24.3708C20.88 24.1236 20.5916 23.7722 20.4213 23.361C20.251 22.9499 20.2064 22.4975 20.2932 22.061C20.3801 21.6246 20.5943 21.2237 20.909 20.909C21.2237 20.5943 21.6246 20.3801 22.061 20.2932C22.4975 20.2064 22.9499 20.251 23.361 20.4213C23.7722 20.5916 24.1236 20.88 24.3708 21.25C24.618 21.62 24.75 22.055 24.75 22.5C24.75 23.0967 24.5129 23.669 24.091 24.091C23.669 24.5129 23.0967 24.75 22.5 24.75Z" fill="#404040"/>
</svg>
