<svg width="36" height="36" viewBox="0 0 36 36" fill="none" xmlns="http://www.w3.org/2000/svg">
<circle cx="18" cy="18" r="18" fill="#E5E5E5"/>
<path opacity="0.2" d="M26.9944 22.3201C26.8487 23.4086 26.3127 24.4071 25.486 25.13C24.6593 25.8529 23.5982 26.2509 22.5 26.2501C19.1185 26.2501 15.8755 24.9068 13.4844 22.5157C11.0933 20.1246 9.75 16.8816 9.75 13.5001C9.74916 12.4019 10.1472 11.3408 10.8701 10.5141C11.593 9.6874 12.5915 9.15138 13.68 9.00573C13.8409 8.98661 14.0037 9.02012 14.1439 9.10124C14.2842 9.18236 14.3944 9.30673 14.4581 9.45573L16.4391 13.8807C16.4877 13.9944 16.5076 14.1183 16.4968 14.2415C16.486 14.3646 16.4449 14.4832 16.3772 14.5867L14.3738 16.9689C14.3027 17.0761 14.2607 17.1999 14.2518 17.3283C14.2429 17.4566 14.2675 17.585 14.3231 17.701C15.0984 19.2882 16.7391 20.9092 18.3309 21.677C18.4475 21.7324 18.5766 21.7564 18.7053 21.7467C18.834 21.737 18.958 21.6939 19.065 21.6217L21.4088 19.6248C21.5126 19.5557 21.6321 19.5136 21.7563 19.5023C21.8806 19.491 22.0057 19.5108 22.1203 19.5601L26.5416 21.541C26.6913 21.6043 26.8163 21.7145 26.898 21.855C26.9797 21.9955 27.0135 22.1587 26.9944 22.3201Z" fill="#404040"/>
<path d="M26.8472 20.8557L22.4306 18.8766L22.4184 18.871C22.1892 18.7729 21.939 18.7336 21.6907 18.7565C21.4424 18.7794 21.2037 18.8639 20.9963 19.0022C20.9718 19.0184 20.9484 19.0359 20.9259 19.0547L18.6441 21.0001C17.1984 20.2979 15.7059 18.8166 15.0038 17.3897L16.9519 15.0732C16.9706 15.0497 16.9884 15.0263 17.0053 15.001C17.1407 14.7941 17.2229 14.5569 17.2445 14.3106C17.2661 14.0643 17.2264 13.8164 17.1291 13.5891V13.5779L15.1444 9.1538C15.0157 8.85686 14.7944 8.60951 14.5136 8.44865C14.2328 8.2878 13.9075 8.22208 13.5863 8.2613C12.3159 8.42847 11.1499 9.05234 10.3059 10.0164C9.4619 10.9805 8.99771 12.2188 9.00001 13.5001C9.00001 20.9438 15.0563 27.0001 22.5 27.0001C23.7813 27.0023 25.0196 26.5382 25.9837 25.6942C26.9477 24.8502 27.5716 23.6841 27.7388 22.4138C27.7781 22.0927 27.7125 21.7674 27.5518 21.4866C27.3911 21.2058 27.144 20.9845 26.8472 20.8557ZM22.5 25.5001C19.3185 25.4966 16.2682 24.2312 14.0186 21.9815C11.7689 19.7318 10.5035 16.6816 10.5 13.5001C10.4965 12.5846 10.8263 11.6991 11.4279 11.009C12.0295 10.3189 12.8617 9.87143 13.7691 9.75005C13.7687 9.7538 13.7687 9.75756 13.7691 9.7613L15.7378 14.1676L13.8 16.4869C13.7803 16.5096 13.7625 16.5337 13.7466 16.5591C13.6055 16.7756 13.5227 17.0249 13.5063 17.2827C13.4899 17.5406 13.5403 17.7984 13.6528 18.031C14.5022 19.7682 16.2525 21.5054 18.0084 22.3538C18.2428 22.4652 18.502 22.5139 18.7608 22.4952C19.0196 22.4765 19.2692 22.3909 19.485 22.2469C19.5091 22.2307 19.5322 22.2132 19.5544 22.1944L21.8334 20.2501L26.2397 22.2235C26.2397 22.2235 26.2472 22.2235 26.25 22.2235C26.1301 23.1322 25.6833 23.9661 24.9931 24.5691C24.3028 25.1722 23.4166 25.5031 22.5 25.5001Z" fill="#404040"/>
<g filter="url(#filter0_b_143_8872)">
<circle cx="18" cy="18" r="18" fill="#E5E5E5" fill-opacity="0.01"/>
</g>
<defs>
<filter id="filter0_b_143_8872" x="-2" y="-2" width="40" height="40" filterUnits="userSpaceOnUse" color-interpolation-filters="sRGB">
<feFlood flood-opacity="0" result="BackgroundImageFix"/>
<feGaussianBlur in="BackgroundImageFix" stdDeviation="1"/>
<feComposite in2="SourceAlpha" operator="in" result="effect1_backgroundBlur_143_8872"/>
<feBlend mode="normal" in="SourceGraphic" in2="effect1_backgroundBlur_143_8872" result="shape"/>
</filter>
</defs>
</svg>
