<svg width="24" height="24" viewBox="0 0 24 24" fill="none" xmlns="http://www.w3.org/2000/svg">
<path opacity="0.2" d="M14.25 12C14.25 12.445 14.118 12.88 13.8708 13.25C13.6236 13.62 13.2722 13.9084 12.861 14.0787C12.4499 14.249 11.9975 14.2936 11.561 14.2068C11.1246 14.12 10.7237 13.9057 10.409 13.591C10.0943 13.2763 9.88005 12.8754 9.79323 12.439C9.70642 12.0025 9.75097 11.5501 9.92127 11.139C10.0916 10.7278 10.38 10.3764 10.75 10.1292C11.12 9.88196 11.555 9.75 12 9.75C12.5967 9.75 13.169 9.98705 13.591 10.409C14.0129 10.831 14.25 11.4033 14.25 12ZM12 6.75C12.445 6.75 12.88 6.61804 13.25 6.37081C13.62 6.12357 13.9084 5.77217 14.0787 5.36104C14.249 4.94991 14.2936 4.49751 14.2068 4.06105C14.12 3.62459 13.9057 3.22368 13.591 2.90901C13.2763 2.59434 12.8754 2.38005 12.439 2.29323C12.0025 2.20642 11.5501 2.25097 11.139 2.42127C10.7278 2.59157 10.3764 2.87996 10.1292 3.24997C9.88196 3.61998 9.75 4.05499 9.75 4.5C9.75 5.09674 9.98705 5.66903 10.409 6.09099C10.831 6.51295 11.4033 6.75 12 6.75ZM12 17.25C11.555 17.25 11.12 17.382 10.75 17.6292C10.38 17.8764 10.0916 18.2278 9.92127 18.639C9.75097 19.0501 9.70642 19.5025 9.79323 19.939C9.88005 20.3754 10.0943 20.7763 10.409 21.091C10.7237 21.4057 11.1246 21.62 11.561 21.7068C11.9975 21.7936 12.4499 21.749 12.861 21.5787C13.2722 21.4084 13.6236 21.12 13.8708 20.75C14.118 20.38 14.25 19.945 14.25 19.5C14.25 18.9033 14.0129 18.331 13.591 17.909C13.169 17.4871 12.5967 17.25 12 17.25Z" fill="#404040"/>
<path d="M12 9C11.4067 9 10.8266 9.17595 10.3333 9.50559C9.83994 9.83524 9.45543 10.3038 9.22836 10.852C9.0013 11.4001 8.94189 12.0033 9.05765 12.5853C9.1734 13.1672 9.45912 13.7018 9.87868 14.1213C10.2982 14.5409 10.8328 14.8266 11.4147 14.9424C11.9967 15.0581 12.5999 14.9987 13.1481 14.7716C13.6962 14.5446 14.1648 14.1601 14.4944 13.6667C14.8241 13.1734 15 12.5933 15 12C15 11.2044 14.6839 10.4413 14.1213 9.87868C13.5587 9.31607 12.7957 9 12 9ZM12 13.5C11.7033 13.5 11.4133 13.412 11.1666 13.2472C10.92 13.0824 10.7277 12.8481 10.6142 12.574C10.5007 12.2999 10.4709 11.9983 10.5288 11.7074C10.5867 11.4164 10.7296 11.1491 10.9393 10.9393C11.1491 10.7296 11.4164 10.5867 11.7074 10.5288C11.9983 10.4709 12.2999 10.5007 12.574 10.6142C12.8481 10.7277 13.0824 10.92 13.2472 11.1666C13.412 11.4133 13.5 11.7033 13.5 12C13.5 12.3978 13.342 12.7794 13.0607 13.0607C12.7794 13.342 12.3978 13.5 12 13.5ZM12 7.5C12.5933 7.5 13.1734 7.32405 13.6667 6.99441C14.1601 6.66477 14.5446 6.19623 14.7716 5.64805C14.9987 5.09987 15.0581 4.49667 14.9424 3.91473C14.8266 3.33279 14.5409 2.79824 14.1213 2.37868C13.7018 1.95912 13.1672 1.6734 12.5853 1.55765C12.0033 1.44189 11.4001 1.5013 10.852 1.72836C10.3038 1.95543 9.83524 2.33994 9.50559 2.83329C9.17595 3.32664 9 3.90666 9 4.5C9 5.29565 9.31607 6.05871 9.87868 6.62132C10.4413 7.18393 11.2044 7.5 12 7.5ZM12 3C12.2967 3 12.5867 3.08797 12.8334 3.2528C13.08 3.41762 13.2723 3.65189 13.3858 3.92598C13.4994 4.20007 13.5291 4.50167 13.4712 4.79264C13.4133 5.08361 13.2704 5.35088 13.0607 5.56066C12.8509 5.77044 12.5836 5.9133 12.2926 5.97118C12.0017 6.02906 11.7001 5.99935 11.426 5.88582C11.1519 5.77229 10.9176 5.58003 10.7528 5.33336C10.588 5.08668 10.5 4.79667 10.5 4.5C10.5 4.10218 10.658 3.72065 10.9393 3.43934C11.2206 3.15804 11.6022 3 12 3ZM12 16.5C11.4067 16.5 10.8266 16.676 10.3333 17.0056C9.83994 17.3352 9.45543 17.8038 9.22836 18.352C9.0013 18.9001 8.94189 19.5033 9.05765 20.0853C9.1734 20.6672 9.45912 21.2018 9.87868 21.6213C10.2982 22.0409 10.8328 22.3266 11.4147 22.4424C11.9967 22.5581 12.5999 22.4987 13.1481 22.2716C13.6962 22.0446 14.1648 21.6601 14.4944 21.1667C14.8241 20.6734 15 20.0933 15 19.5C15 18.7044 14.6839 17.9413 14.1213 17.3787C13.5587 16.8161 12.7957 16.5 12 16.5ZM12 21C11.7033 21 11.4133 20.912 11.1666 20.7472C10.92 20.5824 10.7277 20.3481 10.6142 20.074C10.5007 19.7999 10.4709 19.4983 10.5288 19.2074C10.5867 18.9164 10.7296 18.6491 10.9393 18.4393C11.1491 18.2296 11.4164 18.0867 11.7074 18.0288C11.9983 17.9709 12.2999 18.0007 12.574 18.1142C12.8481 18.2277 13.0824 18.42 13.2472 18.6666C13.412 18.9133 13.5 19.2033 13.5 19.5C13.5 19.8978 13.342 20.2794 13.0607 20.5607C12.7794 20.842 12.3978 21 12 21Z" fill="#404040"/>
</svg>
