<svg width="36" height="36" viewBox="0 0 36 36" fill="none" xmlns="http://www.w3.org/2000/svg">
<circle cx="18" cy="18" r="18" fill="#EFF1F2"/>
<path d="M27 20.25V25.5C27 25.8978 26.842 26.2794 26.5607 26.5607C26.2794 26.842 25.8978 27 25.5 27H10.5C10.1022 27 9.72064 26.842 9.43934 26.5607C9.15804 26.2794 9 25.8978 9 25.5V20.25C9 20.0511 9.07902 19.8603 9.21967 19.7197C9.36032 19.579 9.55109 19.5 9.75 19.5C9.94891 19.5 10.1397 19.579 10.2803 19.7197C10.421 19.8603 10.5 20.0511 10.5 20.25V25.5H25.5V20.25C25.5 20.0511 25.579 19.8603 25.7197 19.7197C25.8603 19.579 26.0511 19.5 26.25 19.5C26.4489 19.5 26.6397 19.579 26.7803 19.7197C26.921 19.8603 27 20.0511 27 20.25ZM17.4694 20.7806C17.539 20.8504 17.6217 20.9057 17.7128 20.9434C17.8038 20.9812 17.9014 21.0006 18 21.0006C18.0986 21.0006 18.1962 20.9812 18.2872 20.9434C18.3783 20.9057 18.461 20.8504 18.5306 20.7806L22.2806 17.0306C22.3503 16.9609 22.4056 16.8782 22.4433 16.7872C22.481 16.6961 22.5004 16.5985 22.5004 16.5C22.5004 16.4015 22.481 16.3039 22.4433 16.2128C22.4056 16.1218 22.3503 16.0391 22.2806 15.9694C22.2109 15.8997 22.1282 15.8444 22.0372 15.8067C21.9461 15.769 21.8485 15.7496 21.75 15.7496C21.6515 15.7496 21.5539 15.769 21.4628 15.8067C21.3718 15.8444 21.2891 15.8997 21.2194 15.9694L18.75 18.4397V9.75C18.75 9.55109 18.671 9.36032 18.5303 9.21967C18.3897 9.07902 18.1989 9 18 9C17.8011 9 17.6103 9.07902 17.4697 9.21967C17.329 9.36032 17.25 9.55109 17.25 9.75V18.4397L14.7806 15.9694C14.6399 15.8286 14.449 15.7496 14.25 15.7496C14.051 15.7496 13.8601 15.8286 13.7194 15.9694C13.5786 16.1101 13.4996 16.301 13.4996 16.5C13.4996 16.699 13.5786 16.8899 13.7194 17.0306L17.4694 20.7806Z" fill="#343330"/>
</svg>
