<svg width="36" height="36" viewBox="0 0 36 36" fill="none" xmlns="http://www.w3.org/2000/svg">
<circle cx="18" cy="18" r="18" fill="#EFF1F2"/>
<path d="M25.2806 24.2194C25.3502 24.289 25.4055 24.3718 25.4432 24.4628C25.4809 24.5539 25.5003 24.6514 25.5003 24.75C25.5003 24.8485 25.4809 24.9461 25.4432 25.0372C25.4055 25.1282 25.3502 25.2109 25.2806 25.2806C25.2109 25.3503 25.1281 25.4056 25.0371 25.4433C24.9461 25.481 24.8485 25.5004 24.7499 25.5004C24.6514 25.5004 24.5538 25.481 24.4628 25.4433C24.3717 25.4056 24.289 25.3503 24.2193 25.2806L17.9999 19.0603L11.7806 25.2806C11.6398 25.4213 11.449 25.5004 11.2499 25.5004C11.0509 25.5004 10.86 25.4213 10.7193 25.2806C10.5786 25.1399 10.4995 24.949 10.4995 24.75C10.4995 24.551 10.5786 24.3601 10.7193 24.2194L16.9396 18L10.7193 11.7806C10.5786 11.6399 10.4995 11.449 10.4995 11.25C10.4995 11.051 10.5786 10.8601 10.7193 10.7194C10.86 10.5786 11.0509 10.4996 11.2499 10.4996C11.449 10.4996 11.6398 10.5786 11.7806 10.7194L17.9999 16.9397L24.2193 10.7194C24.36 10.5786 24.5509 10.4996 24.7499 10.4996C24.949 10.4996 25.1398 10.5786 25.2806 10.7194C25.4213 10.8601 25.5003 11.051 25.5003 11.25C25.5003 11.449 25.4213 11.6399 25.2806 11.7806L19.0602 18L25.2806 24.2194Z" fill="#343330"/>
</svg>
