<svg width="36" height="36" viewBox="0 0 36 36" fill="none" xmlns="http://www.w3.org/2000/svg">
<circle cx="18" cy="18" r="18" fill="#EFF1F2"/>
<path d="M27 18C27 18.1989 26.921 18.3897 26.7803 18.5303C26.6397 18.671 26.4489 18.75 26.25 18.75H18.75V26.25C18.75 26.4489 18.671 26.6397 18.5303 26.7803C18.3897 26.921 18.1989 27 18 27C17.8011 27 17.6103 26.921 17.4697 26.7803C17.329 26.6397 17.25 26.4489 17.25 26.25V18.75H9.75C9.55109 18.75 9.36032 18.671 9.21967 18.5303C9.07902 18.3897 9 18.1989 9 18C9 17.8011 9.07902 17.6103 9.21967 17.4697C9.36032 17.329 9.55109 17.25 9.75 17.25H17.25V9.75C17.25 9.55109 17.329 9.36032 17.4697 9.21967C17.6103 9.07902 17.8011 9 18 9C18.1989 9 18.3897 9.07902 18.5303 9.21967C18.671 9.36032 18.75 9.55109 18.75 9.75V17.25H26.25C26.4489 17.25 26.6397 17.329 26.7803 17.4697C26.921 17.6103 27 17.8011 27 18Z" fill="#343330"/>
</svg>
