<svg width="36" height="36" viewBox="0 0 36 36" fill="none" xmlns="http://www.w3.org/2000/svg">
<circle cx="18" cy="18" r="18" fill="#E5E5E5"/>
<path opacity="0.2" d="M24 16.5C24 17.9834 23.5601 19.4334 22.736 20.6668C21.9119 21.9001 20.7406 22.8614 19.3701 23.4291C17.9997 23.9968 16.4917 24.1453 15.0368 23.8559C13.582 23.5665 12.2456 22.8522 11.1967 21.8033C10.1478 20.7544 9.4335 19.418 9.14411 17.9632C8.85472 16.5083 9.00325 15.0003 9.57091 13.6299C10.1386 12.2594 11.0999 11.0881 12.3332 10.264C13.5666 9.43987 15.0166 9 16.5 9C17.4849 9 18.4602 9.19399 19.3701 9.5709C20.2801 9.94781 21.1069 10.5003 21.8033 11.1967C22.4997 11.8931 23.0522 12.7199 23.4291 13.6299C23.806 14.5398 24 15.5151 24 16.5Z" fill="#404040"/>
<path d="M27.5306 26.4694L22.8375 21.7762C24.2004 20.1416 24.8807 18.0445 24.7368 15.9211C24.5928 13.7977 23.6358 11.8116 22.0648 10.3759C20.4937 8.94013 18.4296 8.16536 16.3019 8.21275C14.1742 8.26013 12.1466 9.12601 10.641 10.6302C9.13546 12.1345 8.26779 14.1613 8.21853 16.289C8.16926 18.4167 8.9422 20.4814 10.3765 22.0537C11.8109 23.626 13.7962 24.5848 15.9194 24.7306C18.0427 24.8764 20.1404 24.198 21.7762 22.8366L26.4694 27.5306C26.5391 27.6003 26.6218 27.6556 26.7128 27.6933C26.8039 27.731 26.9015 27.7504 27 27.7504C27.0985 27.7504 27.1961 27.731 27.2872 27.6933C27.3782 27.6556 27.4609 27.6003 27.5306 27.5306C27.6003 27.4609 27.6556 27.3782 27.6933 27.2872C27.731 27.1961 27.7504 27.0985 27.7504 27C27.7504 26.9015 27.731 26.8039 27.6933 26.7128C27.6556 26.6218 27.6003 26.5391 27.5306 26.4694ZM9.75 16.5C9.75 15.165 10.1459 13.8599 10.8876 12.7499C11.6293 11.6399 12.6835 10.7747 13.9169 10.2638C15.1503 9.75292 16.5075 9.61925 17.8169 9.8797C19.1262 10.1401 20.329 10.783 21.273 11.727C22.217 12.671 22.8598 13.8738 23.1203 15.1831C23.3807 16.4925 23.2471 17.8497 22.7362 19.0831C22.2253 20.3165 21.3601 21.3707 20.2501 22.1124C19.1401 22.8541 17.835 23.25 16.5 23.25C14.7104 23.248 12.9947 22.5362 11.7292 21.2708C10.4638 20.0053 9.75198 18.2896 9.75 16.5Z" fill="#404040"/>
</svg>
