<svg width="36" height="36" viewBox="0 0 36 36" fill="none" xmlns="http://www.w3.org/2000/svg">
<circle cx="18" cy="18" r="18" fill="#EFF1F2"/>
<path d="M27.5306 26.4694L22.8365 21.7762C24.1971 20.1428 24.8755 18.0478 24.7307 15.9269C24.5859 13.8061 23.629 11.8227 22.0591 10.3893C20.4892 8.95602 18.4271 8.18311 16.3019 8.23141C14.1766 8.27971 12.1518 9.1455 10.6486 10.6487C9.14547 12.1518 8.27968 14.1767 8.23138 16.3019C8.18308 18.4272 8.95599 20.4892 10.3893 22.0591C11.8226 23.629 13.806 24.5859 15.9269 24.7307C18.0478 24.8755 20.1428 24.1971 21.7762 22.8366L26.4693 27.5306C26.539 27.6003 26.6218 27.6556 26.7128 27.6933C26.8038 27.731 26.9014 27.7504 27 27.7504C27.0985 27.7504 27.1961 27.731 27.2871 27.6933C27.3782 27.6556 27.4609 27.6003 27.5306 27.5306C27.6003 27.4609 27.6556 27.3782 27.6933 27.2872C27.731 27.1961 27.7504 27.0985 27.7504 27C27.7504 26.9015 27.731 26.8039 27.6933 26.7128C27.6556 26.6218 27.6003 26.5391 27.5306 26.4694ZM9.74997 16.5C9.74997 15.165 10.1459 13.8599 10.8875 12.7499C11.6292 11.6399 12.6835 10.7747 13.9169 10.2638C15.1503 9.75292 16.5075 9.61925 17.8168 9.8797C19.1262 10.1401 20.3289 10.783 21.2729 11.727C22.2169 12.671 22.8598 13.8738 23.1203 15.1831C23.3807 16.4925 23.247 17.8497 22.7362 19.0831C22.2253 20.3165 21.3601 21.3707 20.2501 22.1124C19.14 22.8541 17.835 23.25 16.5 23.25C14.7104 23.248 12.9946 22.5362 11.7292 21.2708C10.4638 20.0053 9.75195 18.2896 9.74997 16.5Z" fill="#404040"/>
</svg>
