<svg width="36" height="36" viewBox="0 0 36 36" fill="none" xmlns="http://www.w3.org/2000/svg">
<circle cx="18" cy="18" r="18" fill="#E5E5E5"/>
<path opacity="0.2" d="M24.75 12.75V23.25C24.75 23.4489 24.671 23.6397 24.5303 23.7803C24.3897 23.921 24.1989 24 24 24H9C8.80109 24 8.61032 23.921 8.46967 23.7803C8.32902 23.6397 8.25 23.4489 8.25 23.25V12.75C8.25 12.5511 8.32902 12.3603 8.46967 12.2197C8.61032 12.079 8.80109 12 9 12H24C24.1989 12 24.3897 12.079 24.5303 12.2197C24.671 12.3603 24.75 12.5511 24.75 12.75Z" fill="#404040"/>
<path d="M29.6034 12.8438C29.4838 12.7796 29.3491 12.7492 29.2135 12.7556C29.078 12.7621 28.9467 12.8052 28.8337 12.8803L25.5 15.0984V12.75C25.5 12.3522 25.342 11.9706 25.0607 11.6893C24.7794 11.408 24.3978 11.25 24 11.25H9C8.60218 11.25 8.22064 11.408 7.93934 11.6893C7.65804 11.9706 7.5 12.3522 7.5 12.75V23.25C7.5 23.6478 7.65804 24.0294 7.93934 24.3107C8.22064 24.592 8.60218 24.75 9 24.75H24C24.3978 24.75 24.7794 24.592 25.0607 24.3107C25.342 24.0294 25.5 23.6478 25.5 23.25V20.9062L28.8337 23.1291C28.9576 23.2095 29.1024 23.2515 29.25 23.25C29.4489 23.25 29.6397 23.171 29.7803 23.0303C29.921 22.8897 30 22.6989 30 22.5V13.5C29.9991 13.3651 29.9617 13.2329 29.8919 13.1174C29.8221 13.0019 29.7225 12.9073 29.6034 12.8438ZM24 23.25H9V12.75H24V23.25ZM28.5 21.0984L25.5 19.0988V16.9012L28.5 14.9062V21.0984Z" fill="#404040"/>
<g filter="url(#filter0_b_143_8876)">
<circle cx="18" cy="18" r="18" fill="#E5E5E5" fill-opacity="0.01"/>
</g>
<defs>
<filter id="filter0_b_143_8876" x="-2" y="-2" width="40" height="40" filterUnits="userSpaceOnUse" color-interpolation-filters="sRGB">
<feFlood flood-opacity="0" result="BackgroundImageFix"/>
<feGaussianBlur in="BackgroundImageFix" stdDeviation="1"/>
<feComposite in2="SourceAlpha" operator="in" result="effect1_backgroundBlur_143_8876"/>
<feBlend mode="normal" in="SourceGraphic" in2="effect1_backgroundBlur_143_8876" result="shape"/>
</filter>
</defs>
</svg>
