<svg width="36" height="36" viewBox="0 0 36 36" fill="none" xmlns="http://www.w3.org/2000/svg">
<circle cx="18" cy="18" r="18" fill="#E5E5E5"/>
<path opacity="0.2" d="M20.25 9V27L13.5 21.75H9C8.80109 21.75 8.61032 21.671 8.46967 21.5303C8.32902 21.3897 8.25 21.1989 8.25 21V15C8.25 14.8011 8.32902 14.6103 8.46967 14.4697C8.61032 14.329 8.80109 14.25 9 14.25H13.5L20.25 9Z" fill="#404040"/>
<path d="M20.5791 8.32603C20.4529 8.26457 20.3121 8.23972 20.1726 8.25431C20.033 8.26889 19.9004 8.32232 19.7897 8.40853L13.2422 13.5001H9C8.60218 13.5001 8.22064 13.6581 7.93934 13.9394C7.65804 14.2207 7.5 14.6023 7.5 15.0001V21.0001C7.5 21.3979 7.65804 21.7794 7.93934 22.0608C8.22064 22.3421 8.60218 22.5001 9 22.5001H13.2422L19.7897 27.5917C19.9005 27.6778 20.0332 27.7311 20.1728 27.7455C20.3124 27.76 20.4533 27.735 20.5793 27.6733C20.7054 27.6117 20.8117 27.516 20.8861 27.3969C20.9604 27.2779 20.9999 27.1404 21 27.0001V9.00009C21 8.85959 20.9606 8.7219 20.8861 8.60273C20.8117 8.48355 20.7053 8.38768 20.5791 8.32603ZM19.5 25.4663L13.9603 21.1585C13.829 21.0556 13.6669 20.9998 13.5 21.0001H9V15.0001H13.5C13.6669 15.0004 13.829 14.9446 13.9603 14.8417L19.5 10.5338V25.4663ZM24.75 15.7501V20.2501C24.75 20.449 24.671 20.6398 24.5303 20.7804C24.3897 20.9211 24.1989 21.0001 24 21.0001C23.8011 21.0001 23.6103 20.9211 23.4697 20.7804C23.329 20.6398 23.25 20.449 23.25 20.2501V15.7501C23.25 15.5512 23.329 15.3604 23.4697 15.2198C23.6103 15.0791 23.8011 15.0001 24 15.0001C24.1989 15.0001 24.3897 15.0791 24.5303 15.2198C24.671 15.3604 24.75 15.5512 24.75 15.7501ZM27.75 14.2501V21.7501C27.75 21.949 27.671 22.1398 27.5303 22.2804C27.3897 22.4211 27.1989 22.5001 27 22.5001C26.8011 22.5001 26.6103 22.4211 26.4697 22.2804C26.329 22.1398 26.25 21.949 26.25 21.7501V14.2501C26.25 14.0512 26.329 13.8604 26.4697 13.7198C26.6103 13.5791 26.8011 13.5001 27 13.5001C27.1989 13.5001 27.3897 13.5791 27.5303 13.7198C27.671 13.8604 27.75 14.0512 27.75 14.2501Z" fill="#404040"/>
</svg>
