<?xml version="1.0" encoding="UTF-8"?>
<svg id="Layer_1" data-name="Layer 1" xmlns="http://www.w3.org/2000/svg" viewBox="0 0 273.9 321.49">
  <defs>
    <style>
      .cls-1 {
        fill: #e1f0da;
      }

      .cls-2 {
        fill: #99bc85;
      }
    </style>
  </defs>
  <g>
    <path class="cls-2" d="M100.47,270.15c-27.46-7.73-51.6-23.95-69.16-46.25,8.73,4.89,20.04,9.78,30.3,9.78,8.38,0,14.8-3.25,19.08-9.66,5.78-8.67,6.7-17.67,2.6-25.34-3.94-7.37-12.5-12.72-20.34-12.72-2.67,0-5.13,.65-7.1,1.87-5.39,3.34-15.9,6.72-25.55,6.72-6.49,0-15.17-1.53-19.7-8.83-.02-.04-.05-.08-.08-.12-.46-.79-2.39-6.22-2.97-8.3-3.34-11.85-5.04-24.15-5.04-36.57,0-21.77,5.04-42.54,14.98-61.74,3.19-6.17,8.76-10.85,15.27-12.84,3.18-.97,6.15-1.47,8.84-1.47,5.43,0,9.53,1.95,12.54,5.95,11.55,15.38,15.31,29.62,14.82,83.51-.06,1.08-.37,11.05,6.48,18.8,4.67,5.29,11.49,8.25,20.26,8.79,.58,.09,2.78,.4,5.54,.4,6.68,0,11.57-1.82,14.14-5.27,2.27-3.05,2.66-7.14,1.17-12.16-1.24-4.15-3.48-8.02-6.68-11.49-5.68-6.19-24.16-27.77-23.29-45.71,.29-6.08,2.7-11.07,7.36-15.25,3.28-2.94,6.79-4.44,10.42-4.44,9.31,0,20.19,9.48,30.64,26.68,8.59,14.15,15.88,32.53,17.74,44.69l.03,.17c2.38,15.59,6.35,41.67-3.73,53.41-3.52,4.1-8.46,6.09-15.1,6.09-6.09,0-13.56-1.74-22.22-5.17-.3-.12-.61-.18-.92-.18-.73,0-1.44,.32-1.93,.91-.69,.83-.76,2.02-.18,2.93,.06,.09,.32,.56,.72,1.32,0,0,.34,.66,.36,.69,.93,1.78,2.32,4.64,3.68,8.2l.07,.18c.23,.6,.46,1.23,.68,1.86,.21,.58,.41,1.15,.58,1.73,.15,.45,.27,.82,.38,1.19,0,.03,.02,.07,.03,.1,.06,.18,.11,.35,.16,.53,.13,.43,.24,.83,.34,1.22l.19,.69,.32,1.27c.19,.82,.38,1.68,.54,2.55,.07,.39,.15,.78,.2,1.16,.07,.38,.11,.66,.14,.94,.06,.43,.11,.79,.15,1.16,.22,1.9,.31,3.71,.28,5.41,0,.26,0,.47-.02,.68-.01,.31-.02,.54-.04,.76-.03,.41-.06,.79-.1,1.17l-.16,1.25c-.04,.28-.09,.55-.14,.82-.07,.39-.15,.76-.23,1.12-.07,.29-.13,.57-.21,.86-.02,.05-.03,.11-.05,.17-.06,.23-.12,.45-.19,.67-.06,.2-.1,.35-.16,.5-.01,.03-.02,.07-.04,.1-.07,.22-.15,.44-.23,.67l-.18,.47c-.09,.21-.15,.38-.22,.54-.13,.31-.26,.59-.4,.87-.23,.48-.51,1-.84,1.56-.22,.36-.47,.75-.73,1.12-.13,.2-.25,.37-.38,.53-.17,.24-.3,.41-.43,.58-.19,.23-.38,.47-.6,.71-.23,.27-.44,.5-.65,.72-.2,.21-.39,.4-.57,.58-.05,.04-.09,.08-.13,.12-.23,.22-.48,.45-.73,.67-.25,.22-.5,.43-.75,.62-.23,.19-.41,.33-.6,.47-.05,.03-.11,.07-.13,.09-.2,.15-.35,.26-.5,.36-.51,.37-.98,.67-1.45,.95l-.15,.09c-.21,.13-.43,.26-.67,.39-.14,.08-.25,.14-.37,.2-.35,.19-.62,.33-.88,.47-.38,.19-.75,.37-1.13,.54-.37,.16-.75,.33-1.15,.49-.38,.16-.75,.31-1.13,.45,0,0-.15,.05-.21,.07-.16,.06-.32,.12-.49,.18Z"/>
    <path class="cls-2" d="M41.6,67.16c4.59,0,8.04,1.62,10.54,4.95,10.35,13.78,14.83,25.7,14.32,81.94-.07,1.57-.23,12.21,7.1,20.51,5.11,5.78,12.46,9.02,21.86,9.62,.8,.12,3.03,.42,5.81,.42,7.5,0,13.08-2.17,16.14-6.27,2.77-3.71,3.29-8.55,1.56-14.37-1.35-4.52-3.78-8.71-7.23-12.47-5.52-6.01-23.46-26.92-22.64-43.9,.26-5.38,2.4-9.8,6.54-13.51,2.85-2.55,5.71-3.8,8.75-3.8,8.28,0,18.67,9.29,28.5,25.48,8.44,13.9,15.59,31.9,17.4,43.77l.03,.16c2.16,14.17,6.18,40.54-3.16,51.41-3.02,3.51-7.33,5.22-13.2,5.22s-12.93-1.68-21.29-4.99c-.6-.24-1.22-.35-1.84-.35-1.45,0-2.87,.64-3.84,1.8-1.37,1.64-1.54,3.97-.43,5.8,.06,.1,.3,.53,.7,1.28,.03,.06,.06,.12,.1,.18,.04,.08,.09,.17,.13,.25l.02,.03c.03,.05,.05,.11,.08,.16,.9,1.72,2.24,4.49,3.55,7.91l.07,.18c.22,.59,.45,1.19,.66,1.81,0,.02,.01,.04,.02,.06,.18,.51,.37,1.06,.54,1.6,.02,.05,.03,.1,.05,.15,.11,.33,.22,.66,.31,1,.02,.07,.04,.14,.06,.21,.05,.14,.09,.28,.13,.42,0,.02,.01,.05,.02,.07,.11,.36,.21,.72,.3,1.08,.01,.05,.02,.09,.04,.13,.05,.18,.1,.36,.15,.54l.31,1.24c.19,.8,.36,1.62,.52,2.45,.07,.34,.13,.7,.18,1.04,0,.06,.02,.12,.03,.19,.04,.23,.08,.46,.11,.7,0,.05,.01,.09,.02,.14,.05,.36,.1,.71,.14,1.04,.2,1.75,.29,3.45,.26,5.04,0,.03,0,.07,0,.1,0,.15,0,.29-.02,.44,0,.06,0,.14-.01,.19,0,.18-.01,.37-.03,.6-.02,.34-.06,.68-.09,1.01l-.07,.59-.07,.59v.04c-.04,.23-.08,.47-.12,.71,0,.02,0,.04-.01,.06-.06,.32-.13,.65-.2,.96-.05,.24-.11,.47-.17,.71-.03,.1-.06,.2-.08,.3-.04,.17-.09,.33-.14,.49-.01,.03-.02,.06-.03,.09-.03,.1-.06,.2-.09,.3-.02,.07-.05,.14-.07,.2-.05,.17-.12,.34-.18,.51-.03,.08-.06,.16-.09,.24-.02,.06-.04,.12-.07,.17-.01,.03-.03,.06-.04,.09-.05,.13-.1,.27-.16,.4,0,.02-.02,.04-.03,.06-.11,.24-.22,.49-.34,.74-.21,.43-.45,.88-.73,1.36-.19,.32-.41,.66-.65,1-.02,.02-.03,.04-.05,.07-.08,.12-.17,.25-.27,.37-.03,.04-.06,.08-.09,.12-.1,.14-.2,.27-.28,.37-.17,.21-.35,.43-.54,.64-.02,.03-.05,.05-.07,.08-.17,.19-.34,.38-.52,.57-.02,.02-.05,.05-.07,.07-.12,.13-.25,.27-.39,.4-.06,.05-.12,.11-.18,.16-.22,.21-.45,.42-.68,.62-.19,.17-.38,.33-.58,.48-.04,.03-.08,.06-.12,.1-.13,.11-.26,.21-.4,.31-.06,.04-.12,.08-.17,.12-.14,.1-.28,.21-.43,.31-.03,.02-.07,.05-.1,.07-.4,.29-.81,.55-1.21,.79-.02,.01-.04,.02-.06,.03l-.13,.08c-.18,.11-.36,.22-.56,.33-.03,.01-.05,.03-.08,.04-.06,.04-.13,.07-.2,.11-.06,.03-.12,.06-.18,.09-.23,.13-.47,.26-.71,.38-.01,0-.03,.02-.04,.02-.31,.16-.64,.31-.97,.46-.36,.16-.72,.31-1.12,.48-.31,.13-.62,.25-.94,.38-22.74-6.55-43.13-19.04-59.23-36.04,6.59,2.72,13.7,4.69,20.45,4.69,9.14,0,16.46-3.73,21.16-10.77,8.52-12.78,5.36-22.97,2.72-27.91-4.42-8.27-13.69-14.04-22.55-14.04-3.14,0-6.05,.78-8.42,2.24-5.09,3.15-15.05,6.35-24.23,6.35-8.51,0-14.43-2.57-17.58-7.65,0,0,0,0,0,0-.56-1.12-2.26-5.97-2.77-7.78-3.28-11.63-4.94-23.7-4.94-35.89,0-21.37,4.95-41.75,14.7-60.59,2.89-5.57,7.91-9.8,13.78-11.6,2.94-.9,5.67-1.36,8.11-1.36m0-5c-3.29,0-6.59,.66-9.57,1.58-7.26,2.23-13.27,7.34-16.76,14.08C5.51,96.66,0,118.05,0,140.71c0,12.91,1.79,25.41,5.13,37.25,.56,2,2.69,8.15,3.34,9.07,4.61,7.42,13.04,10.01,21.83,10.01,10.37,0,21.23-3.6,26.87-7.1,1.64-1.01,3.63-1.49,5.78-1.49,11.93,0,28.65,14.7,15.67,34.17-4.18,6.27-10.3,8.55-17,8.55-11.68,0-25.11-6.94-32.98-11.74l-6.9-4.68s0,0,0,0c0,0,0,0,0,0h0s0,0,0,0c0,0,0,0,0,0,18.01,27.97,45.93,48.94,78.79,58h.02s0,.01,0,.01c.44-.15,.88-.3,1.3-.46,.04-.01,.09-.03,.13-.04,.43-.16,.85-.33,1.26-.5,.42-.17,.83-.35,1.24-.53,.42-.19,.83-.38,1.22-.58,.3-.15,.6-.31,.89-.47,.16-.08,.31-.16,.45-.24,.31-.17,.6-.35,.88-.52,.56-.33,1.09-.68,1.59-1.04,.19-.13,.38-.27,.57-.41,.03-.02,.06-.04,.09-.06,.23-.17,.46-.35,.68-.53,.3-.23,.59-.47,.87-.72,.28-.25,.56-.5,.82-.75h0c.26-.25,.52-.51,.76-.77,.25-.26,.49-.52,.72-.79,.24-.27,.46-.54,.68-.81,.16-.2,.32-.41,.47-.62,.16-.21,.31-.42,.45-.63,.29-.42,.57-.85,.83-1.28,.34-.58,.66-1.17,.95-1.77,.14-.3,.28-.6,.41-.9,.09-.2,.17-.4,.25-.6,.08-.19,.15-.39,.23-.59,.09-.25,.18-.5,.26-.75,.07-.19,.13-.39,.19-.59,.09-.28,.17-.56,.24-.85,.01-.01,.01-.02,.01-.03,.1-.35,.18-.69,.26-1.04,.09-.4,.18-.81,.25-1.21,.06-.32,.11-.65,.16-.97,.06-.44,.11-.88,.17-1.33,.04-.4,.08-.8,.1-1.21,.02-.26,.03-.52,.04-.77,.02-.27,.03-.54,.03-.81,.04-1.91-.07-3.83-.29-5.72-.05-.4-.1-.8-.16-1.2-.04-.33-.09-.66-.15-.99-.06-.42-.14-.85-.22-1.27-.17-.91-.36-1.81-.57-2.7-.11-.44-.22-.88-.33-1.32-.06-.22-.12-.44-.18-.65-.11-.43-.23-.86-.36-1.29-.06-.21-.12-.42-.19-.63-.12-.42-.25-.83-.39-1.24-.19-.62-.4-1.22-.61-1.81-.25-.73-.52-1.44-.78-2.13-1.39-3.62-2.82-6.58-3.8-8.46-.06-.13-.13-.25-.19-.37-.06-.12-.12-.23-.18-.34-.47-.88-.77-1.4-.82-1.48,9.39,3.72,17,5.34,23.14,5.34,30.89,0,24.54-41.1,21.27-62.54-3.6-23.63-27.64-73.5-50.85-73.5-4.09,0-8.17,1.55-12.09,5.08-22.15,19.86,6.43,54.35,15.76,64.51,2.78,3.02,4.95,6.58,6.12,10.52,3.66,12.3-6.33,14.22-12.91,14.22-2.98,0-5.26-.39-5.26-.39-26.04-1.54-24.51-25.02-24.51-25.02,.51-55.66-3.58-69.45-15.32-85.09-3.92-5.21-9.22-6.95-14.54-6.95h0Z"/>
  </g>
  <g>
    <path class="cls-2" d="M189.56,264.48c-1.34-.15-5.56-.98-9.93-5.67-6.18-6.63-13.14-21.64-11.2-55.45,3.49-61.1-12.85-95.02-22.9-109.81-6.69-9.83-24.46-52.08-15.1-73.9,3.13-7.3,8.88-11.55,17.57-13,2.13-.23,4.15-.34,6.02-.34,6.28,0,11.42,1.27,16.18,3.99,.03,.02,.06,.03,.08,.05,25.35,15.46,27.34,70.78,20.74,117.44-.23,1.41-5.62,35.99,9.2,54.51,.08,.1,.17,.19,.26,.28,1.14,1.05,11.4,10.27,19.9,10.27,3.09,0,5.69-1.23,7.52-3.56,4.59-5.86,4.33-18.88-.82-39.79-.03-.14-.08-.27-.13-.4-.2-.45-19.38-45.24-7.84-63.3,3-4.7,7.84-7.07,14.8-7.25,.33,0,.67-.01,1-.01,14.38,0,24.79,8.02,30.96,23.85,.02,.07,.04,.13,.07,.2,2.96,10.06,4.74,20.5,5.29,31.04,.12,2.27,.19,4.65,.19,7.07,0,54.09-32.11,102.61-81.84,123.77Z"/>
    <path class="cls-2" d="M154.02,8.82c5.83,0,10.57,1.16,14.94,3.66,.03,.02,.05,.03,.08,.05,24.28,14.9,25.7,71.14,19.52,114.88-.34,2.15-5.64,37.28,9.72,56.47,.16,.2,.33,.38,.52,.55,1.21,1.12,12.14,10.93,21.59,10.93,3.89,0,7.17-1.56,9.48-4.51,5.17-6.6,5.05-19.92-.36-41.93-.07-.27-.16-.54-.27-.79-5.28-12.18-17.02-46.88-8.03-60.96,2.52-3.95,6.7-5.94,12.76-6.09,.31,0,.63-.01,.94-.01,13.2,0,22.82,7.44,28.58,22.13,.02,.07,.04,.13,.07,.19,0,0,0,.02,0,.02,2.89,9.85,4.63,20.06,5.16,30.38,.12,2.23,.18,4.56,.18,6.93,0,26.49-7.82,52.03-22.6,73.88-14.2,20.98-33.91,37.31-57.06,47.31-1.46-.29-4.64-1.34-7.97-5-5.75-6.34-12.22-20.74-10.34-53.39,3.53-61.83-13.1-96.31-23.33-111.36-2.98-4.39-9.04-17.05-13.17-31.47-3.45-12.04-6.54-28.75-1.7-40.03,2.76-6.43,7.87-10.2,15.62-11.51,2.01-.21,3.92-.32,5.68-.32m0-5c-2.02,0-4.12,.13-6.33,.36h0c-42.84,7.03-12.68,78.34-4.22,90.78,8.68,12.77,26.04,45.75,22.47,108.26-3.65,63.61,23.71,63.79,24.06,63.79h.02c49.29-20.74,83.89-69.48,83.89-126.3,0-2.41-.06-4.81-.19-7.2-.57-10.98-2.43-21.62-5.43-31.77-.02-.03-.03-.06-.03-.09-.02-.02-.02-.03-.02-.05-5.12-13.21-14.85-25.54-33.33-25.54-.35,0-.7,0-1.06,.01-40.85,1.02-9.19,74.04-9.19,74.04,7.87,31.96,2.95,40.25-4.27,40.25-7.77,0-18.2-9.61-18.2-9.61-14.3-17.87-8.68-52.6-8.68-52.6,5.96-42.14,6-103.09-22.05-120.01h-.01c-5.28-3.02-10.91-4.32-17.42-4.32h0Z"/>
  </g>
  <g>
    <path class="cls-2" d="M237.26,318.99c-14.17,0-25.7-11.53-25.7-25.7s11.53-25.7,25.7-25.7,25.7,11.53,25.7,25.7-11.53,25.7-25.7,25.7Z"/>
    <path class="cls-2" d="M237.26,270.08c12.79,0,23.2,10.41,23.2,23.2s-10.41,23.2-23.2,23.2-23.2-10.41-23.2-23.2,10.41-23.2,23.2-23.2m0-5c-15.58,0-28.2,12.63-28.2,28.2s12.63,28.2,28.2,28.2,28.2-12.63,28.2-28.2-12.63-28.2-28.2-28.2h0Z"/>
  </g>
  <g>
    <g>
      <path class="cls-1" d="M76.57,58.37c-3.36,0-6.53-1.22-9.43-3.61-3.9-3.23-4.79-5.73-4.37-6.9,.3-.83,1.41-1.41,2.71-1.41s2.48,.55,3.31,1.51c2.36,2.75,5.48,4.21,9.03,4.21h0c4.28,0,8.59-2.21,10.91-5.49,.58,2.11,1.86,3.64,3.69,4.37,.94,.38,1.88,.57,2.8,.57,1.88,0,3.56-.83,4.63-2.26,1.37-1.86,1.62-4.56,.68-7.6-.3-.97-.64-1.92-.97-2.84-1.75-4.85-2.16-6.85,.46-8.65,.27-.19,.54-.28,.83-.28,1.77,0,4.53,3.48,5.12,11.22l.03,.42c.09,1.13,.19,2.3-.11,4.67-1.32,10.63-5.67,10.81-7.09,10.87-.13,0-.26-.04-.4-.06-.23-.04-.46-.08-.69-.1-1.14-.12-3.26-.69-4.67-3.13-.38-.66-1.04-1.1-1.78-1.22-.13-.02-.25-.03-.38-.03-.62,0-1.23,.23-1.69,.66-.05,.05-5.71,5.11-12.61,5.11h0Z"/>
      <path class="cls-1" d="M101.43,32.32h0m-.53,.44c.76,.84,2.16,3.3,2.57,8.64l.03,.43c.06,.72,.12,1.42,.06,2.47-.07-.99-.27-2.08-.64-3.27-.32-1.03-.67-2.01-1.01-2.96-1.36-3.77-1.47-4.75-1.01-5.31m-9.25,13.93h0m-26.17,2.27c.32,0,.93,.08,1.41,.63,2.81,3.28,6.69,5.08,10.93,5.08,3.47,0,6.95-1.24,9.7-3.27,0,0-.02,.02-.03,.03-.05,.04-5.02,4.45-10.92,4.45-2.8,0-5.36-.99-7.83-3.04-2.29-1.89-3.11-3.21-3.4-3.87,.05,0,.09,0,.15,0m37.41,.04c-.81,3.56-2.16,5.45-4,5.65-.02,0-.04,0-.06-.01-.28-.05-.57-.1-.85-.13-.42-.05-.93-.17-1.43-.48,2.15-.32,4.04-1.44,5.33-3.18,.33-.45,.71-1.06,1.03-1.85m-14.76,1.93s0,0,0,0c0,0-.02,.01-.03,.02,0,0,.02-.01,.03-.02m12.72-23.45c-.79,0-1.56,.25-2.25,.72-5.38,3.7-2.08,8.98-.46,14.29,1.32,4.3-.4,6.63-2.92,6.63-.59,0-1.22-.13-1.87-.39-1.62-.65-2.22-2.24-2.41-3.73-.14-1.11-1.05-1.74-1.98-1.74-.66,0-1.31,.32-1.7,1.02-.03,.05-.05,.1-.08,.14-1.57,2.91-5.42,5.25-9.37,5.25-2.53,0-5.1-.96-7.14-3.34-1.4-1.64-3.36-2.38-5.2-2.38-4.89,0-9,5.22,.07,12.73,3.75,3.1,7.55,4.19,11.02,4.19,8.01,0,14.3-5.76,14.3-5.76,2.01,3.48,5.17,4.21,6.56,4.36,.45,.05,.91,.18,1.36,.18,.03,0,.06,0,.09,0,7.1-.29,8.88-8.26,9.47-13.06,.36-2.92,.18-4.28,.09-5.58-.72-9.46-4.39-13.53-7.61-13.53h0Z"/>
    </g>
    <g>
      <path class="cls-1" d="M75.61,77.26c-.87,0-1.57-.71-1.57-1.57s.71-1.57,1.57-1.57,1.57,.71,1.57,1.57-.71,1.57-1.57,1.57Z"/>
      <path class="cls-1" d="M75.61,71.61c-2.25,0-4.07,1.82-4.07,4.07s1.82,4.07,4.07,4.07,4.07-1.82,4.07-4.07-1.82-4.07-4.07-4.07h0Z"/>
    </g>
    <g>
      <path class="cls-1" d="M84.38,77.26c-.87,0-1.57-.71-1.57-1.57s.71-1.57,1.57-1.57,1.57,.71,1.57,1.57-.71,1.57-1.57,1.57Z"/>
      <path class="cls-1" d="M84.38,71.61c-2.25,0-4.07,1.82-4.07,4.07s1.82,4.07,4.07,4.07,4.07-1.82,4.07-4.07-1.82-4.07-4.07-4.07h0Z"/>
    </g>
    <g>
      <circle class="cls-1" cx="79.94" cy="83.44" r="1.57"/>
      <path class="cls-1" d="M79.94,79.36c-2.25,0-4.07,1.82-4.07,4.07s1.82,4.07,4.07,4.07,4.07-1.82,4.07-4.07-1.82-4.07-4.07-4.07h0Z"/>
    </g>
    <g>
      <path class="cls-1" d="M93.25,20.5c-.86,0-1.23-.33-1.52-.83-.08-.14-.2-.35,.12-.91,1.09-1.89,5.07-4.01,8.77-4.01h.19c8.1,.17,8.33,2.73,8.41,3.57,.01,.11,.04,.49-.08,.62-.18,.2-.93,.54-2.55,.54-1.21,0-2.72-.19-4.35-.55-.51-.11-1.06-.17-1.64-.17-.77,0-1.61,.1-2.49,.3-.81,.18-1.63,.46-2.5,.86-.83,.38-1.69,.59-2.36,.59Z"/>
      <path class="cls-1" d="M100.62,12.25c-6.05,0-13.33,4.74-11.05,8.67,.93,1.6,2.33,2.08,3.68,2.08s2.7-.5,3.39-.81c.65-.29,1.32-.54,2.02-.7,.58-.13,1.26-.24,1.94-.24,.37,0,.75,.03,1.1,.11,1.7,.38,3.39,.61,4.89,.61,3.12,0,5.38-1.02,5.12-3.88-.38-4.23-4.75-5.71-10.84-5.84-.08,0-.16,0-.24,0h0Z"/>
    </g>
    <g>
      <path class="cls-1" d="M87.16,10.37c-.23,0-.51-.09-.81-.27-.46-.78,1.22-4.61,4.09-6.35,1.7-1.03,2.99-1.25,3.77-1.25,1.17,0,1.7,.47,1.77,.58,.06,.12,.1,.42-.03,.72-.12,.29-.34,.47-.68,.57-1.34,.37-2.39,.84-3.3,1.48-1.39,.97-2.54,2.2-3.42,3.64-.18,.24-.79,.88-1.4,.88Z"/>
      <path class="cls-1" d="M94.21,0c-1.43,0-3.15,.45-5.07,1.61-3.75,2.28-7.4,8.66-4.06,10.64,.76,.45,1.46,.62,2.09,.62,2.15,0,3.5-2.02,3.5-2.02,.83-1.4,1.87-2.34,2.75-2.96,.76-.53,1.63-.87,2.53-1.11,2.44-.68,3.11-3.32,2.23-4.91C97.6,.86,96.19,0,94.21,0h0Z"/>
    </g>
  </g>
</svg>